<svg xmlns="http://www.w3.org/2000/svg" width="640" height="420" viewBox="0 0 640 420">
  <rect width="640" height="420" fill="#15161d"/><path d="M0 322q150-90 305-12t335-5v115H0z" fill="#252331"/>
  <path d="M52 95h540v220H52z" fill="#1d2029" stroke="#ffb35e" stroke-width="3"/>
  <path d="M85 253q98-112 192 0t196-5" fill="none" stroke="#58606c" stroke-width="5" stroke-dasharray="11 10"/>
  <path d="m240 128 78-42 78 42v91l-78 44-78-44z" fill="#a9562d" stroke="#ffd28c" stroke-width="4"/>
  <path d="m240 128 78 43 78-43m-78 43v92m-24-180v63" fill="none" stroke="#ffd28c" stroke-width="4"/>
  <circle cx="87" cy="255" r="12" fill="#62e8d8"/><circle cx="477" cy="250" r="12" fill="#ffb35e"/>
  <path d="M86 283h100m286 0h89" stroke="#78818d" stroke-width="4"/>
</svg>